<!-- Placeholder para Proyecto 3: Weather Dashboard -->
<svg width="400" height="250" xmlns="http://www.w3.org/2000/svg">
  <defs>
    <linearGradient id="grad3" x1="0%" y1="0%" x2="100%" y2="100%">
      <stop offset="0%" style="stop-color:#ffecd2;stop-opacity:1" />
      <stop offset="100%" style="stop-color:#fcb69f;stop-opacity:1" />
    </linearGradient>
  </defs>
  <rect width="100%" height="100%" fill="url(#grad3)"/>
  <circle cx="100" cy="80" r="25" fill="#fbbf24"/>
  <path d="M75 80 L85 75 L85 85 Z" fill="#fbbf24"/>
  <path d="M125 80 L115 75 L115 85 Z" fill="#fbbf24"/>
  <path d="M100 55 L95 65 L105 65 Z" fill="#fbbf24"/>
  <path d="M100 105 L95 95 L105 95 Z" fill="#fbbf24"/>
  <rect x="180" y="50" width="150" height="80" rx="10" fill="rgba(255,255,255,0.3)"/>
  <rect x="190" y="60" width="40" height="25" rx="5" fill="#3b82f6"/>
  <rect x="240" y="60" width="40" height="25" rx="5" fill="#10b981"/>
  <rect x="190" y="95" width="40" height="25" rx="5" fill="#f59e0b"/>
  <rect x="240" y="95" width="40" height="25" rx="5" fill="#ef4444"/>
  <rect x="60" y="150" width="280" height="60" rx="10" fill="rgba(255,255,255,0.2)"/>
  <path d="M80 180 Q120 160 160 180 T240 180 T320 180" stroke="#3b82f6" stroke-width="3" fill="none"/>
  <text x="200" y="235" font-family="Arial, sans-serif" font-size="18" font-weight="bold" fill="#4a5568" text-anchor="middle">Weather Dashboard</text>
</svg>